<mxfile host="app.diagrams.net" modified="2023-10-08T03:24:55.056Z" agent="Mozilla/5.0 (X11; Linux x86_64) AppleWebKit/537.36 (KHTML, like Gecko) Chrome/117.0.0.0 Safari/537.36" version="22.0.4" etag="DZr-Zh_Qhq_uU6emVc9U" type="github">
  <diagram name="Page-1" id="OismewexX7PU5lhjMx5L">
    <mxGraphModel>
      <root>
        <mxCell id="0" />
        <mxCell id="1" parent="0" />
      </root>
    </mxGraphModel>
  </diagram>
</mxfile>
